<?xml version="1.0" encoding="UTF-8" standalone="no"?>
<svg
   xmlns:dc="http://purl.org/dc/elements/1.1/"
   xmlns:cc="http://creativecommons.org/ns#"
   xmlns:rdf="http://www.w3.org/1999/02/22-rdf-syntax-ns#"
   xmlns:svg="http://www.w3.org/2000/svg"
   xmlns="http://www.w3.org/2000/svg"
   xmlns:sodipodi="http://sodipodi.sourceforge.net/DTD/sodipodi-0.dtd"
   xmlns:inkscape="http://www.inkscape.org/namespaces/inkscape"
   version="1.1"
   id="svg2"
   xml:space="preserve"
   width="1333.3333"
   height="261.17334"
   viewBox="0 0 1333.3333 261.17334"
   sodipodi:docname="Cumorah Academy Logo - Horizontal - White.eps"><metadata
     id="metadata8"><rdf:RDF><cc:Work
         rdf:about=""><dc:format>image/svg+xml</dc:format><dc:type
           rdf:resource="http://purl.org/dc/dcmitype/StillImage" /></cc:Work></rdf:RDF></metadata><defs
     id="defs6" /><sodipodi:namedview
     pagecolor="#ffffff"
     bordercolor="#666666"
     borderopacity="1"
     objecttolerance="10"
     gridtolerance="10"
     guidetolerance="10"
     inkscape:pageopacity="0"
     inkscape:pageshadow="2"
     inkscape:window-width="640"
     inkscape:window-height="480"
     id="namedview4" /><g
     id="g10"
     inkscape:groupmode="layer"
     inkscape:label="ink_ext_XXXXXX"
     transform="matrix(1.3333333,0,0,-1.3333333,0,261.17333)"><g
       id="g12"
       transform="scale(0.1)"><path
         d="m 9913.64,413.211 h -50.84 l -7.52,-19.762 -65.9,-125.668 h -4.22 l -59.78,126.61 -6.12,18.82 h -51.77 l 96.01,-196.25 0.47,-19.301 -2.81,-86.609 h 48.94 l -2.36,86.609 0.48,18.82 z m -1302.1,0 -14.12,-43.762 -61.19,-161.91 h -3.76 l -57.9,160.492 -14.12,45.18 h -55.52 l -31.54,-302.16 h 40.94 l 7.54,96.008 14.12,132.261 h 4.24 l 72.01,-194.84 h 38.57 l 77.67,194.84 h 3.3 l 14.12,-136.48 6.12,-91.789 h 43.3 l -28.72,302.16 z m -1288.97,-39.539 71.54,-1.891 3.77,37.188 -2.82,4.242 h -179.32 l 3.28,-211.313 -3.28,-90.847 h 178.37 l 3.31,37.187 -2.82,4.242 -72.97,-2.359 -57.42,0.469 -1.4,55.531 0.46,39.059 51.3,0.941 53.18,-1.402 3.78,37.179 -3.3,3.762 -49.88,-1.41 -54.6,0.949 1.4,88.012 z M 6167.77,262.148 c 0,78.122 -29.18,113.422 -88,113.422 -9.88,0 -43.76,-0.961 -61.66,-1.898 l -2.35,-167.551 1.41,-56 c 21.18,-1.883 51.78,-3.312 61.66,-3.312 56.48,0 88.94,36.73 88.94,115.339 z m 50.36,10.821 c 0,-106.367 -52.7,-164.739 -147.78,-164.739 -20.22,0 -73.41,1.411 -101.19,2.821 h -0.46 l 3.28,90.847 -3.28,211.313 h 0.46 l 114.37,1.891 c 86.61,0 134.6,-50.383 134.6,-142.133 z M 4895.81,226.371 4852.5,365.672 h -3.29 l -49.42,-139.301 47.54,-0.949 z m -15.06,186.84 97.42,-302.16 h -49.9 l -7.06,33.89 -13.16,41.899 -64.02,1.398 -57.89,-1.398 -14.12,-39.551 -7.52,-36.238 h -48.48 l 107.79,302.16 z m -1203.28,-37.18 c 26.82,0 50.34,-9.422 69.64,-24.48 l 4.72,1.418 8.95,42.82 c -22.61,13.18 -49.91,20.723 -81.43,20.723 -87.55,0 -137.91,-56.481 -137.91,-157.211 0,-97.43 47.54,-152.012 132.25,-152.012 29.18,0 54.12,7.063 80.02,19.77 l 3.76,44.242 -4.7,2.82 c -21.66,-16.473 -48.96,-25.883 -75.3,-25.883 -54.14,0 -85.21,39.543 -85.21,116.242 0,74.372 30.13,111.551 85.21,111.551 z m -1184.46,-149.66 -43.3,139.301 h -3.3 l -49.43,-139.301 47.54,-0.949 z m -15.07,186.84 97.43,-302.16 h -49.9 l -7.06,33.89 -13.16,41.899 -64.02,1.398 -57.89,-1.398 -14.12,-39.551 -7.52,-36.238 h -48.48 l 107.79,302.16 z m 6819.67,423.07 c -50.48,0 -91.43,40.457 -92.37,90.66 v 372.329 h 590.1 V 925.859 c -1.52,-49.718 -42.25,-89.578 -92.34,-89.578 l -18.25,0.028 -0.24,-14.418 H 10000 l -0.22,14.418 -18.26,-0.028 c -50.45,0 -91.42,40.457 -92.34,90.66 h -0.06 v 799.349 c 0.95,50.24 41.9,90.69 92.36,90.69 l 18.26,-0.04 0.22,14.38 h -315.43 l 0.23,-14.38 18.24,0.04 c 49.86,0 90.42,-39.49 92.32,-88.87 v -385.58 h -590.1 v 384.68 c 1.41,49.79 42.17,89.77 92.35,89.77 l 18.25,-0.04 0.22,14.38 H 9000.6 l 0.24,-14.38 18.23,0.04 c 50.27,0 91.11,-40.13 92.35,-90.09 V 926.941 c -0.92,-50.203 -41.9,-90.66 -92.35,-90.66 l -18.25,0.028 -0.22,-14.418 h 315.46 l -0.22,14.418 z m -802.24,379.279 -173.8,462.81 -181.39,-462.81 z m 353.66,-379.251 h 12.05 v -14.418 h -324.7 v 14.289 h 12.67 c 37.24,0 75.88,32.8 54.82,90.519 l -92.24,245.601 h -388.4 l -96.6,-246.48 c -20.35,-57.16 18.07,-89.64 55.11,-89.64 h 12.67 v -14.289 h -290.24 v 14.418 h 12.97 c 43.87,0 97.17,26.57 126.33,90.691 l 327.02,775.95 c 0,0 53.4,116.81 53.4,148.52 h 12.97 l 385.48,-924.368 c 29.16,-64.18 82.51,-90.793 126.69,-90.793 z m -1245.79,37.5 c -162.95,171.601 -253.81,279.731 -377.37,411.531 139.42,-0.57 244.7,130.64 244.7,284.95 0,157.16 -111.04,261.34 -281.19,261.34 h -389.33 l 0.22,-14.69 18.26,0.04 c 50.44,0 91.41,-40.45 92.34,-90.69 h 0.06 V 926.379 c -1.62,-52.859 -44.73,-90.07 -92.14,-90.07 h -18.46 l -0.22,-14.418 h 315.01 l -0.25,14.418 h -17.77 c -53.37,0 -92.3,43.261 -92.82,90.632 h -0.04 v 859.019 l 179.37,-0.82 c 118.25,0 174.48,-96.61 178.82,-219.18 1.43,-43.27 -4.34,-70.66 -8.66,-86.53 -36.06,-132.66 -163.08,-145.03 -224.96,-149.97 -36.18,-2.87 -69.29,-0.58 -76.55,-0.58 v -13.33 c 24.65,-3.38 51.36,-30.08 86.65,-69.72 94.25,-105.86 318.6,-352.158 387.89,-431.15 154.3,-175.918 320.12,-299.942 553.45,-237.91 v 14.39 c -182.86,-23.058 -328.49,125.469 -477.01,282.649 z m -1005.3,452.761 c 0,289.05 -163.12,481.73 -407.75,481.73 -244.65,0 -407.76,-192.68 -407.76,-481.73 0,-289.03 163.11,-481.718 407.76,-481.718 244.63,0 407.75,192.688 407.75,481.718 z m 110.54,0 c 0,-314.92 -211.65,-524.859 -518.29,-524.859 -306.66,0 -518.31,209.939 -518.31,524.859 0,314.94 211.65,524.9 518.31,524.9 306.64,0 518.29,-209.96 518.29,-524.9 z M 5468.11,926.648 5356.16,1851.02 h -13.18 L 4949.57,981.379 4547.15,1851.47 h -13.37 L 4425.33,926.648 c -7.41,-57.007 -53.56,-90.347 -105.1,-90.347 h -22.96 v -14.43 h 279.26 v 13.617 h -22.45 c -31.08,0.063 -56.22,30.481 -56.22,61.563 0,1.32 0.06,2.64 0.13,3.918 l 0.19,1.941 0.06,0.469 62.92,698.381 368.77,-800.049 h 13.58 c 9.31,59.66 49.47,147.238 49.47,147.238 l 303.06,673.751 65,-719.302 c 0.23,-2.078 0.38,-4.179 0.38,-6.328 0,-31.082 -25.16,-61.5 -56.21,-61.558 h -22.49 v -13.621 h 313.46 v 14.418 l -22.98,-0.008 c -51.54,0 -97.7,33.34 -105.09,90.347 z M 4165.66,1831.25 h -60.22 v 0.04 h -103.19 v -14.43 h 23.49 c 40.99,0 74.38,-28.97 76.18,-69.39 l -0.32,-568.84 c 0,-198.919 -128.44,-331.54 -321.06,-331.54 -183.71,0 -306.17,140.051 -306.17,350.12 l -0.14,550.43 c 1.88,40.33 35.23,69.22 76.14,69.22 h 23.51 v 14.43 H 3281 v -14.43 h 23.49 c 41.67,0 75.47,-29.92 76.23,-71.38 h 0.04 l -0.13,-569.46 c 0,-224.59 159.98,-374.329 399.91,-374.329 233.21,0 388.67,150.739 388.67,376.839 l 0.06,570.25 c 2.46,39.73 35.56,68.08 76.08,68.08 h 23.51 v 14.43 h -103.2 z m -1013.05,-588.52 12.01,0.04 -17.57,-226.3 c -75.99,-124.208 -204.98,-214.759 -405.22,-214.759 -301.55,1.437 -514.97,207.649 -514.97,526.329 0,312.91 206.21,523.43 523.44,523.43 141.31,0 256.68,-41.81 341.06,-97.38 l 29.1,-203.67 -12,0.04 c -43.81,168.35 -185.12,257.75 -358.45,257.84 -253.5,-0.09 -415,-191.87 -415,-478.84 0,-289.83 164.37,-478.73 406.82,-484.608 204.76,0.628 377.99,102.578 410.78,397.878"
         style="fill:#ffffff;fill-opacity:1;fill-rule:nonzero;stroke:none"
         id="path14" /><path
         d="M 1785.37,535.941 C 1718.63,403.719 1623.88,292.602 1510.4,207.98 L 1280.99,368.609 1439,958.352 c 32.08,0.148 64.19,-9.282 91.58,-28.461 L 1850.8,705.66 c -16.15,-58.191 -37.74,-114.93 -65.43,-169.719 z M 288.301,304.809 529.504,822.059 c 35.168,2.25 70.926,-6.7 100.98,-27.75 l 859.046,-601.5 C 1336.12,84.9609 1150.71,24.3984 954.488,24.3984 698.254,24.3984 460.426,127.648 288.301,304.809 Z M 112.883,559.039 432.422,782.77 145.387,495.75 c -7.481,13.199 -14.778,26.539 -21.672,40.199 -3.848,7.621 -7.207,15.403 -10.832,23.09 z M 158.082,473.898 449.664,765.469 200.523,409.66 c -14.921,20.731 -29.117,42.121 -42.441,64.238 z M 215.824,388.98 469.719,751.57 270.25,323.828 c -19.066,20.762 -37.18,42.543 -54.426,65.152 z M 1369.79,887.148 1165.65,449.371 1096.94,497.48 Z m -20.03,13.934 -272.8,-389.613 -68.7,48.109 z m -17.32,17.227 -344.506,-344.5 -73.746,51.64 z M 653.516,807.969 c 60.312,110.492 174.589,178.812 301.031,178.812 100.843,0 195.473,-44.031 260.853,-120.64 L 892.922,640.332 Z M 1185.94,435.16 1391.92,876.891 1259.72,383.5 Z M 24.4063,1280.09 558.148,906.371 c 2.133,-1.5 4.579,-2.223 6.981,-2.223 3.851,0 7.644,1.813 10.008,5.204 3.871,5.507 2.535,13.136 -2.992,17 L 24.4063,1309.89 v 246.68 l 534.4097,-534.4 c 2.383,-2.39 5.508,-3.58 8.633,-3.58 3.133,0 6.258,1.19 8.641,3.58 4.746,4.76 4.746,12.49 0,17.25 L 24.4063,1591.1 v 343.27 H 35.9219 L 671.914,1026.08 c 2.363,-3.4 6.156,-5.21 10.012,-5.21 2.398,0 4.844,0.72 6.976,2.2 5.528,3.87 6.864,11.48 2.993,17 L 65.7031,1934.37 H 339.242 l 403.293,-864.89 c 2.078,-4.44 6.465,-7.05 11.059,-7.05 1.734,0 3.484,0.37 5.144,1.15 6.121,2.85 8.75,10.1 5.91,16.21 l -398.48,854.58 h 229.926 l 204.898,-764.74 c 1.446,-5.45 6.387,-9.04 11.781,-9.04 1.032,0 2.094,0.12 3.165,0.41 6.5,1.75 10.371,8.43 8.617,14.94 l -203.207,758.43 h 208.015 l 71.418,-816.19 c 0.571,-6.34 5.891,-11.13 12.145,-11.13 0.359,0 0.722,0.02 1.082,0.04 6.715,0.59 11.672,6.51 11.097,13.23 l -71.222,814.05 h 201.327 l -65.089,-743.98 c -0.57,-6.72 4.387,-12.64 11.099,-13.22 0.36,-0.03 0.72,-0.05 1.08,-0.05 6.26,0 11.58,4.79 12.15,11.14 l 65.28,746.11 h 208.03 l -221.91,-828.15 c -1.75,-6.51 2.12,-13.2 8.62,-14.94 1.07,-0.29 2.13,-0.42 3.16,-0.42 5.4,0 10.34,3.6 11.78,9.05 l 223.61,834.46 h 229.92 L 1144.46,1079.8 c -2.84,-6.11 -0.21,-13.36 5.91,-16.21 1.66,-0.79 3.41,-1.14 5.15,-1.14 4.59,0 8.98,2.6 11.05,7.03 l 403.3,864.89 h 273.53 l -584.82,-835.2 c -3.86,-5.51 -2.53,-13.12 3,-16.99 2.14,-1.49 4.58,-2.21 6.98,-2.21 3.85,0 7.64,1.82 10,5.21 l 594.62,849.19 h 11.51 V 1591.1 L 1282.04,988.43 c -4.75,-4.766 -4.75,-12.5 0,-17.266 2.38,-2.379 5.51,-3.566 8.63,-3.566 3.13,0 6.26,1.187 8.64,3.566 l 585.38,585.406 V 1309.89 L 1532.6,1063.35 c -5.53,-3.87 -6.87,-11.47 -3,-17 2.37,-3.39 6.16,-5.21 10.01,-5.21 2.41,0 4.85,0.72 6.98,2.21 l 338.1,236.74 V 954.602 c 0,-76.59 -9.24,-151.364 -27.15,-223.883 l -312.97,219.152 c -33.49,23.438 -73.09,33.945 -112.29,32.348 -2.35,0.527 -4.59,0.234 -6.68,-0.5 -0.59,-0.047 -1.17,-0.086 -1.75,-0.133 -2.23,0.394 -4.45,0.316 -6.51,-0.488 -2.12,-0.258 -4.23,-0.344 -6.35,-0.68 -1.2,-0.078 -2.3,-0.363 -3.43,-0.785 -3.49,-0.621 -6.93,-1.547 -10.39,-2.379 -2.14,0.105 -4.22,-0.402 -6.15,-1.41 -19.7,-5.426 -38.73,-13.856 -56.04,-25.973 l -99.35,-69.57 c -70.09,83.183 -172.27,130.879 -281.083,130.879 -134.883,0 -256.828,-72.578 -321.641,-190.059 -33.496,19.93 -71.769,28.238 -109.445,24.899 -2.059,0.32 -4.113,0.269 -6.023,-0.45 -2.305,-0.281 -4.606,-0.41 -6.903,-0.781 -0.867,-0.078 -1.668,-0.301 -2.5,-0.57 -25.793,-4.52 -50.847,-14.309 -73.129,-29.93 L 102.363,581.449 C 50.6836,698.949 24.4063,824.23 24.4063,954.602 Z M 1909.09,954.602 V 1958.77 h -346.54 c -0.01,0 -0.02,0 -0.02,0 H 346.555 c -0.012,0 -0.024,0 -0.028,0 H 0 V 954.602 C 0,816.27 29.0586,683.59 85.7539,559.449 c 0.3594,-1.187 0.7539,-2.379 1.5117,-3.461 0.0547,-0.066 0.1407,-0.109 0.1992,-0.187 4.7579,-10.301 9.336,-20.672 14.4762,-30.852 C 265.395,201.141 592.066,0 954.488,0 c 362.492,0 689.232,201.141 852.652,524.93 29.64,58.652 52.47,119.449 69.23,181.859 0.24,0.711 0.47,1.383 0.57,2.109 21.12,79.411 32.15,161.461 32.15,245.704"
         style="fill:#ffffff;fill-opacity:1;fill-rule:nonzero;stroke:none"
         id="path16" /></g></g></svg>
