<?xml version="1.0" standalone="no"?>
<!DOCTYPE svg PUBLIC "-//W3C//DTD SVG 20010904//EN"
 "http://www.w3.org/TR/2001/REC-SVG-20010904/DTD/svg10.dtd">
<svg version="1.0" xmlns="http://www.w3.org/2000/svg"
 width="500px" height="250px">

<g transform="translate(0.000000,522.000000) scale(0.100000,-0.100000)"
fill="#000000" stroke="none">
<path d="M3915 4003 c-16 -2 -219 -26 -450 -54 -231 -28 -431 -53 -443 -56
-20 -5 -23 -11 -19 -32 3 -14 33 -240 66 -501 34 -261 72 -522 86 -580 22 -90
29 -165 51 -540 13 -239 30 -523 37 -630 l12 -195 60 -8 c70 -8 1177 -59 1182
-53 2 2 -32 223 -76 492 -44 269 -83 537 -86 596 -4 59 -12 113 -18 121 -7 8
-66 58 -133 111 l-121 96 -413 -37 c-275 -24 -417 -33 -428 -27 -12 8 -67 163
-59 169 1 1 189 17 417 34 228 18 425 34 437 37 14 3 41 32 73 79 l50 74 -20
358 c-11 197 -20 372 -20 388 0 23 -15 45 -66 98 -37 37 -72 66 -78 66 -6 -1
-24 -4 -41 -6z m-744 -1203 c11 -38 19 -75 17 -82 -3 -7 -12 17 -21 53 -9 36
-19 73 -23 82 -3 10 -4 17 0 17 3 0 15 -31 27 -70z"/>
<path d="M2535 3888 c-209 -27 -721 -93 -1138 -147 -417 -54 -760 -101 -763
-104 -3 -3 4 -107 15 -231 12 -124 21 -230 21 -236 0 -5 13 -10 28 -10 28 0
735 90 1182 151 124 16 429 56 678 88 249 32 455 61 458 64 5 5 -40 400 -52
455 -3 15 -11 22 -27 21 -12 -1 -193 -24 -402 -51z m393 -25 c2 -18 0 -33 -5
-33 -4 0 -51 -7 -103 -15 -129 -20 -126 -20 -134 17 -3 17 -4 33 -2 35 6 6
190 31 216 30 20 -2 26 -8 28 -34z m-852 -185 l6 -66 -91 -13 c-50 -7 -96 -16
-103 -20 -8 -5 -8 -36 1 -125 8 -79 8 -119 2 -124 -13 -8 -302 -43 -307 -37
-5 5 -65 429 -62 432 2 1 122 19 268 41 l265 39 7 -30 c4 -16 10 -60 14 -97z
m878 75 c7 -46 27 -209 29 -243 2 -24 0 -24 -193 -56 -107 -17 -197 -27 -200
-23 -9 14 -42 301 -35 307 4 5 270 40 382 51 6 0 14 -16 17 -36z m-1450 -80
c14 -93 39 -363 34 -368 -3 -3 -191 -27 -419 -53 -410 -47 -414 -48 -420 -27
-8 29 -43 384 -38 389 5 5 749 93 801 95 35 1 36 -1 42 -36z m802 -18 c3 -20
5 -38 3 -40 -2 -2 -39 -10 -81 -18 l-78 -15 -6 35 c-4 19 -3 37 0 41 6 6 34
12 148 31 4 0 10 -15 14 -34z m-205 -185 c15 -109 15 -111 -6 -115 -38 -9
-158 -26 -160 -23 -4 5 -26 220 -23 223 2 1 37 7 78 12 41 6 80 11 86 12 6 0
16 -45 25 -109z m223 12 c7 -58 6 -76 -4 -82 -16 -10 -120 -24 -127 -17 -8 9
-26 148 -19 154 8 9 84 21 116 19 23 -1 26 -6 34 -74z"/>
<path d="M2195 3330 c-434 -60 -815 -111 -845 -114 -139 -11 -262 -30 -266
-41 -6 -13 53 -596 61 -603 2 -2 48 -1 102 4 l98 9 5 148 5 148 78 -79 79 -79
-67 -77 c-36 -42 -72 -76 -78 -76 -22 0 -592 -73 -596 -76 -2 -2 28 -46 68
-99 60 -80 75 -94 94 -90 31 7 244 35 266 35 15 0 20 -22 40 -182 12 -101 26
-186 29 -189 4 -4 54 0 112 7 58 7 110 13 115 14 6 0 127 100 270 223 l259
222 267 -145 268 -145 11 -62 c10 -50 16 -63 30 -63 22 0 174 21 177 24 4 4
-86 646 -91 655 -5 7 -153 -11 -160 -20 -1 -2 5 -87 14 -189 10 -102 17 -186
16 -187 -3 -4 -386 172 -385 177 0 3 28 24 62 46 46 31 76 43 115 47 29 4 57
9 62 12 6 3 10 49 10 101 0 52 4 94 9 94 5 0 127 -16 272 -35 281 -37 333 -41
374 -25 l26 10 -7 92 c-4 51 -8 94 -9 96 -3 3 -410 42 -442 42 -32 0 -54 40
-70 128 -8 42 -16 89 -19 103 -3 14 1 41 9 60 l14 35 223 42 c122 22 225 43
227 46 10 9 -14 61 -28 63 -8 0 -369 -48 -804 -107z m817 75 c4 -20 1 -26 -16
-30 -11 -3 -109 -21 -216 -41 -107 -19 -198 -38 -203 -41 -5 -3 -18 -25 -29
-49 -17 -40 -17 -46 -3 -73 8 -17 15 -49 15 -73 0 -62 42 -148 72 -148 33 0
440 -39 443 -42 1 -2 5 -42 8 -90 l6 -87 -47 -7 c-33 -5 -133 4 -327 30 -154
20 -286 36 -292 36 -10 0 -13 -27 -13 -99 l0 -100 -57 -6 c-45 -6 -74 -18
-130 -54 -40 -25 -73 -48 -73 -51 0 -8 410 -194 415 -188 2 2 -3 83 -12 180
-9 97 -13 183 -10 191 5 14 122 36 133 25 2 -3 22 -135 44 -294 22 -159 42
-301 44 -315 5 -25 2 -27 -37 -33 -23 -3 -63 -8 -89 -12 l-47 -6 -6 38 c-14
85 -5 78 -290 233 l-270 147 -259 -222 -258 -222 -87 -11 c-111 -14 -151 -14
-151 1 0 18 -41 342 -45 354 -2 7 -53 4 -159 -11 l-157 -21 -64 85 c-35 47
-58 87 -52 88 7 2 138 19 292 38 154 20 287 38 295 41 8 3 43 39 78 81 l64 76
-80 81 -79 81 6 60 6 60 62 3 61 3 7 -68 c4 -37 7 -71 8 -75 1 -3 54 -62 119
-130 l116 -124 199 23 c109 13 207 25 218 28 12 3 45 46 83 110 l64 106 -12
52 c-17 69 -20 76 -109 191 l-76 98 -225 -6 c-227 -7 -409 -22 -422 -35 -4 -4
4 -23 17 -44 l26 -37 -55 0 c-30 0 -61 -3 -70 -6 -13 -5 -16 3 -16 50 0 36 5
58 13 61 9 3 1547 217 1613 224 7 0 14 -10 16 -24z m-1669 -497 c-3 -167 -7
-305 -9 -307 -4 -5 -176 -22 -181 -18 -6 7 -63 581 -57 586 3 3 58 13 122 22
64 9 120 17 124 18 3 0 4 -135 1 -301z m849 200 c59 -80 80 -117 92 -165 l16
-62 -62 -103 -63 -103 -180 -22 c-271 -33 -234 -42 -361 93 l-108 116 -10 82
-11 81 -65 -4 c-36 -1 -68 -5 -72 -8 -5 -2 -8 -20 -8 -40 0 -20 -3 -34 -6 -31
-3 4 -2 37 1 75 l7 68 75 2 c42 1 78 4 80 7 3 3 -4 18 -16 34 -12 17 -21 35
-21 40 0 6 24 13 53 17 52 8 323 20 492 23 l91 2 76 -102z"/>
<path d="M1705 3045 c-93 -13 -172 -24 -174 -24 -6 -2 10 -156 18 -163 3 -4
95 2 204 14 l197 21 0 27 c0 15 -3 55 -6 89 -8 73 13 70 -239 36z m225 -12 c0
-16 3 -51 6 -79 l6 -51 -173 -17 c-96 -9 -183 -18 -194 -19 -17 -2 -21 6 -28
67 -4 38 -5 71 -3 73 5 5 322 50 364 52 18 1 22 -4 22 -26z"/>
<path d="M871 3144 c-95 -13 -179 -25 -185 -27 -10 -4 -3 -78 25 -302 20 -163
38 -298 40 -299 5 -4 370 42 376 47 5 6 -68 591 -76 598 -3 3 -84 -4 -180 -17z
m211 -281 c20 -159 35 -289 34 -291 -2 -2 -355 -49 -356 -47 -1 0 -18 132 -39
293 -33 257 -36 292 -22 293 9 0 75 9 146 19 72 9 146 18 166 19 l35 1 36
-287z"/>
<path d="M2893 2681 c-90 -10 -165 -20 -168 -22 -3 -3 9 -111 26 -240 16 -129
33 -255 36 -280 9 -78 0 -76 203 -52 99 11 184 23 187 27 7 6 -2 92 -38 404
l-22 182 -31 -1 c-17 -1 -104 -9 -193 -18z"/>
<path d="M740 2475 c0 -11 94 -145 101 -145 15 0 10 12 -38 82 -40 59 -63 82
-63 63z"/>
<path d="M960 2289 c-102 -15 -189 -28 -193 -29 -4 0 -5 -21 -2 -47 3 -27 17
-165 30 -308 14 -143 27 -278 30 -300 5 -34 3 -41 -12 -41 -10 0 -78 -6 -152
-14 l-134 -13 8 -146 c3 -80 10 -149 13 -152 4 -4 75 1 158 10 l151 16 27 -37
c17 -24 35 -38 49 -38 21 0 431 53 509 66 l36 5 7 -100 c5 -63 12 -101 19
-101 33 -1 1742 174 1747 179 4 3 0 57 -8 119 -15 111 -16 112 -42 112 -15 0
-407 -45 -871 -99 -465 -55 -846 -98 -849 -95 -5 5 -12 50 -51 369 -41 334
-30 299 -99 292 -32 -2 -63 -2 -69 2 -9 5 -52 315 -52 371 0 15 -45 11 -250
-21z m-54 -74 c8 -34 4 -37 -56 -43 l-50 -5 0 31 c0 26 4 31 28 35 63 10 71 8
78 -18z m480 -319 c3 -13 4 -37 2 -52 -3 -27 -7 -29 -58 -36 -30 -3 -56 -5
-58 -4 -1 2 -5 26 -9 54 l-6 51 39 4 c82 8 83 8 90 -17z m-203 -328 c17 -97
38 -290 34 -301 -3 -9 -54 -19 -147 -31 l-141 -18 -28 26 c-27 25 -29 34 -40
168 -6 77 -10 143 -7 145 2 2 73 12 157 22 85 10 157 19 160 20 4 0 9 -14 12
-31z m-353 -153 c7 -75 11 -137 9 -139 -8 -6 -281 -32 -284 -26 -1 3 -6 66
-10 141 l-7 137 94 9 c51 6 114 11 139 12 l46 1 13 -135z m611 8 c10 -65 19
-123 19 -129 0 -13 -188 -40 -199 -28 -9 9 -45 244 -39 249 5 4 193 32 197 28
2 -1 12 -56 22 -120z m1782 0 c4 -21 9 -70 13 -108 l6 -70 -823 -84 c-453 -46
-845 -85 -870 -88 l-46 -5 -6 92 c-4 52 -5 95 -3 98 6 5 1635 199 1687 201 35
1 37 -1 42 -36z"/>
<path d="M2825 2023 c-143 -19 -506 -67 -808 -107 -301 -40 -550 -75 -553 -79
-5 -5 52 -436 59 -443 1 -2 50 3 107 11 58 8 434 58 835 111 402 53 733 99
737 103 3 3 -3 103 -15 221 l-22 215 -40 2 c-22 0 -157 -14 -300 -34z"/>
</g>
</svg>
